<?xml version="1.0"?>
<svg xmlns="http://www.w3.org/2000/svg" viewBox="0 0 50 50">
    <path style="line-height:normal;text-indent:0;text-align:start;text-decoration-line:none;text-decoration-style:solid;text-decoration-color:#000;text-transform:none;block-progression:tb;isolation:auto;mix-blend-mode:normal" d="M 41.800781 1 A 0.60000002 0.60000002 0 0 0 41.199219 1.5996094 A 0.60000002 0.60000002 0 0 0 41.800781 2.1992188 A 0.60000002 0.60000002 0 0 0 42.400391 1.5996094 A 0.60000002 0.60000002 0 0 0 41.800781 1 z M 40.199219 1.1992188 A 0.60000002 0.60000002 0 0 0 39.599609 1.8007812 A 0.60000002 0.60000002 0 0 0 40.199219 2.4003906 A 0.60000002 0.60000002 0 0 0 40.800781 1.8007812 A 0.60000002 0.60000002 0 0 0 40.199219 1.1992188 z M 38.599609 1.5 A 0.60000002 0.60000002 0 0 0 38 2.0996094 A 0.60000002 0.60000002 0 0 0 38.599609 2.6992188 A 0.60000002 0.60000002 0 0 0 39.199219 2.0996094 A 0.60000002 0.60000002 0 0 0 38.599609 1.5 z M 36.957031 1.8007812 A 0.60000002 0.60000002 0 0 0 36.400391 2.4003906 A 0.60000002 0.60000002 0 0 0 37 3 A 0.60000002 0.60000002 0 0 0 37.599609 2.4003906 A 0.60000002 0.60000002 0 0 0 37 1.8007812 A 0.60000002 0.60000002 0 0 0 36.957031 1.8007812 z M 35.300781 2.1992188 A 0.60000002 0.60000002 0 0 0 34.699219 2.8007812 A 0.60000002 0.60000002 0 0 0 35.300781 3.4003906 A 0.60000002 0.60000002 0 0 0 35.900391 2.8007812 A 0.60000002 0.60000002 0 0 0 35.300781 2.1992188 z M 42.085938 2.4003906 A 1.0001 1.0001 0 0 0 41.916016 2.4160156 L 36.017578 3.5175781 A 1.0001 1.0001 0 0 0 36.003906 3.5195312 C 35.252475 3.6698176 34.663219 4.0523906 34.199219 4.4003906 A 1.0001 1.0001 0 0 0 34.089844 4.4960938 L 19.242188 19.490234 C 18.233609 18.548722 16.902293 18 15.5 18 C 12.692 18 10.342203 20.102531 10.033203 22.894531 C 10.012203 23.093531 10 23.295 10 23.5 L 10 23.966797 C 9.935 24.900797 9.532 26 8 26 C 7.865 26 7.7519688 26.022875 7.6679688 26.046875 C 3.3579688 26.468875 -1.1842379e-15 30.156 0 34.5 C 0 34.594 0.0038125 34.711312 0.0078125 34.820312 L 0.015625 34.955078 C -0.145375 38.507078 1.3393594 42.008641 4.1933594 44.806641 C 7.0913594 47.706641 9.963 49 13.5 49 C 17.322 49 19.754422 46.562031 20.607422 45.707031 C 22.181422 44.134031 22.621766 42.732094 23.009766 41.496094 C 23.234766 40.778094 23.428078 40.157688 23.830078 39.554688 C 24.518078 38.524687 25.501016 37.958375 26.541016 37.359375 C 28.163016 36.426375 30 35.37 30 32.5 C 30 31.086843 29.422954 29.957371 28.488281 29.326172 L 41.507812 16.306641 C 41.789912 16.024445 41.866276 16 42.099609 16 A 1.0001 1.0001 0 0 0 42.191406 15.996094 L 43.291016 15.896484 A 1.0001 1.0001 0 0 0 43.396484 15.880859 C 44.0222 15.755716 44.729864 15.483027 45.306641 14.90625 L 47.707031 12.507812 A 1.0001 1.0001 0 0 0 47.707031 11.09375 L 46.806641 10.193359 A 1.0001 1.0001 0 0 0 46.085938 9.9003906 A 1.0001 1.0001 0 0 0 45.916016 9.9160156 L 40.017578 11.017578 A 1.0001 1.0001 0 0 0 40.003906 11.019531 C 39.252475 11.169817 38.663219 11.552391 38.199219 11.900391 A 1.0001 1.0001 0 0 0 38.091797 11.994141 L 24.160156 26 L 23 26 C 22.448 26 22 25.552 22 25 L 22 24.392578 L 37.509766 8.8046875 C 37.789195 8.5256732 37.867198 8.5 38.099609 8.5 A 1.0001 1.0001 0 0 0 38.191406 8.4960938 L 39.291016 8.3964844 A 1.0001 1.0001 0 0 0 39.396484 8.3808594 C 40.022197 8.2557197 40.729864 7.9830267 41.306641 7.40625 L 43.707031 5.0078125 A 1.0001 1.0001 0 0 0 43.707031 3.59375 L 42.806641 2.6933594 A 1.0001 1.0001 0 0 0 42.085938 2.4003906 z M 41.322266 4.5625 L 39.892578 5.9921875 C 39.673308 6.2114573 39.384311 6.336701 39.019531 6.4121094 L 38.009766 6.5039062 L 38.099609 6.5 C 37.332943 6.5 36.611601 6.874727 36.09375 7.3925781 A 1.0001 1.0001 0 0 0 36.091797 7.3945312 L 16.998047 26.583984 L 16.009766 25.595703 L 35.429688 5.984375 C 35.759889 5.741903 36.155261 5.5287132 36.396484 5.4804688 L 41.322266 4.5625 z M 45.800781 8.5 A 0.60000002 0.60000002 0 0 0 45.199219 9.0996094 A 0.60000002 0.60000002 0 0 0 45.800781 9.6992188 A 0.60000002 0.60000002 0 0 0 46.400391 9.0996094 A 0.60000002 0.60000002 0 0 0 45.800781 8.5 z M 44.199219 8.6992188 A 0.60000002 0.60000002 0 0 0 43.599609 9.3007812 A 0.60000002 0.60000002 0 0 0 44.199219 9.9003906 A 0.60000002 0.60000002 0 0 0 44.800781 9.3007812 A 0.60000002 0.60000002 0 0 0 44.199219 8.6992188 z M 42.599609 9 A 0.60000002 0.60000002 0 0 0 42 9.5996094 A 0.60000002 0.60000002 0 0 0 42.599609 10.199219 A 0.60000002 0.60000002 0 0 0 43.199219 9.5996094 A 0.60000002 0.60000002 0 0 0 42.599609 9 z M 40.957031 9.3007812 A 0.60000002 0.60000002 0 0 0 40.400391 9.9003906 A 0.60000002 0.60000002 0 0 0 41 10.5 A 0.60000002 0.60000002 0 0 0 41.599609 9.9003906 A 0.60000002 0.60000002 0 0 0 41 9.3007812 A 0.60000002 0.60000002 0 0 0 40.957031 9.3007812 z M 39.300781 9.6992188 A 0.60000002 0.60000002 0 0 0 38.699219 10.300781 A 0.60000002 0.60000002 0 0 0 39.300781 10.900391 A 0.60000002 0.60000002 0 0 0 39.900391 10.300781 A 0.60000002 0.60000002 0 0 0 39.300781 9.6992188 z M 45.322266 12.0625 L 43.892578 13.492188 C 43.673308 13.711456 43.384311 13.836701 43.019531 13.912109 L 42.009766 14.003906 L 42.099609 14 C 41.332943 14 40.611601 14.374727 40.09375 14.892578 L 22.400391 32.585938 L 21.412109 31.597656 L 39.429688 13.484375 C 39.759889 13.241903 40.155261 13.028713 40.396484 12.980469 L 45.322266 12.0625 z M 10.011719 29 L 13 31.988281 L 11.988281 33 L 9 30.011719 L 10.011719 29 z M 16.011719 35 L 19 37.988281 L 17.988281 39 L 15 36.011719 L 16.011719 35 z M 16 42 C 16.552 42 17 42.448 17 43 C 17 43.552 16.552 44 16 44 C 15.448 44 15 43.552 15 43 C 15 42.448 15.448 42 16 42 z M 12 43 C 12.552 43 13 43.448 13 44 C 13 44.552 12.552 45 12 45 C 11.448 45 11 44.552 11 44 C 11 43.448 11.448 43 12 43 z"/>
</svg>
